<svg id="Layer_1" data-name="Layer 1" xmlns="http://www.w3.org/2000/svg" xmlns:xlink="http://www.w3.org/1999/xlink" viewBox="0 0 250.6 27"><defs><style>.cls-1{fill:url(#linear-gradient);}.cls-2{fill:none;stroke:#231f20;}</style><linearGradient id="linear-gradient" y1="13.5" x2="250.6" y2="13.5" gradientUnits="userSpaceOnUse"><stop offset="0" stop-color="#a15cee"/><stop offset="1" stop-color="#6aaff9"/></linearGradient></defs><rect class="cls-1" width="250.6" height="27"/><path d="M23.9,17.53h-.8V9.94H23l-2,7.59H19.59l-2-7.59h-.08v7.59H16.7V9.14h1.51l2,7.59h.2l2-7.59H23.9Z"/><path d="M31.5,11.81v5.72h-.81v-4h-4v4h-.81V11.81l1.79-2.67h2Zm-.81.93v-.69L29.28,9.94H28.11L26.7,12.05v.69Z"/><path d="M38.85,17.53H34.29V9.14h4.56l1,1V16.5Zm-3.75-.8h3.43l.56-.56V10.5l-.56-.56H35.1Z"/><path d="M43.5,10.5v2.24h4.39v.8H43.5v2.63l.56.56h4.23v.8H43.73l-1-1V10.17l1-1h4.56v.8H44.06Z"/><path d="M65.1,12.5l-.64.63.64.64V16.5l-1,1H59.49V9.14h4.56l1,1Zm-4.8.24h3.43l.56-.57V10.5l-.56-.56H60.3Zm4,1.36-.56-.56H60.3v3.19h3.43l.56-.56Z"/><path d="M73.5,9.14v3.79l-2.4,2v2.61h-.81V14.92l-2.4-2V9.14h.81v3.4l2,1.67,2-1.67V9.14Z"/><path d="M87.9,9.94v6.79h2.39v.8h-5.6v-.8h2.4V9.94h-2.4v-.8h5.6v.8Z"/><path d="M98.69,9.14v3.79l-2.39,2v2.61h-.81V14.92l-2.4-2V9.14h.81v3.4l2,1.67,2-1.67V9.14Z"/><path d="M107.09,11.81v5.72h-.8v-4h-4v4h-.81V11.81l1.79-2.67h2Zm-.8.93v-.69l-1.41-2.11h-1.17l-1.41,2.11v.69Z"/><path d="M116.3,17.53h-.81V9.94h-.08l-2,7.59H112l-2-7.59h-.08v7.59h-.81V9.14h1.51l2,7.59h.2l2-7.59h1.51Z"/><path d="M123.9,17.53h-1.48l-3.19-7.59h-.13v7.59h-.81V9.14h1.47l3.2,7.59h.13V9.14h.81Z"/><path d="M132.29,11.81v5.72h-.8v-4h-4v4h-.81V11.81l1.79-2.67h2Zm-.8.93v-.69l-1.41-2.11h-1.17l-1.41,2.11v.69Z"/><path d="M140.69,12.5l-.63.63.63.64V16.5l-1,1h-4.56V9.14h4.56l1,1Zm-4.79.24h3.43l.56-.57V10.5l-.56-.56H135.9Zm4,1.36-.56-.56H135.9v3.19h3.43l.56-.56Z"/><path d="M144.3,10.5v2.24h4.39v.8H144.3v2.63l.56.56h4.23v.8h-4.56l-1-1V10.17l1-1h4.56v.8h-4.23Z"/><path d="M152.7,10.5v2.24h4.39v.8H152.7v2.63l.56.56h4.23v.8h-4.56l-1-1V10.17l1-1h4.56v.8h-4.23Z"/><path d="M165.89,17.53h-1.47l-3.19-7.59h-.13v7.59h-.81V9.14h1.47l3.2,7.59h.13V9.14h.8Z"/><path d="M183.5,9.14V16.5l-1,1h-1.93l-.64-.63-.64.63h-1.93l-1-1V9.14h.81v7l.56.56h1.27l.56-.56v-7h.8v7l.56.56h1.27l.56-.56v-7Z"/><path d="M188.7,9.94v6.79h2.39v.8h-5.6v-.8h2.4V9.94h-2.4v-.8h5.6v.8Z"/><path d="M199.49,9.14v.8H197.1v7.59h-.81V9.94h-2.4v-.8Z"/><path d="M207.89,9.14v8.39h-.8v-4h-4v4h-.81V9.14h.81v3.6h4V9.14Z"/><path d="M222.49,15.39l-1.8-2.26,1.8-2.24.62.5-1.4,1.74,1.4,1.75Z"/><path d="M232.05,17.53h-4.56v-.8h4.24l.56-.56V13.71l-.56-.58H229.5v-1l2.79-2V9.94h-4.8v-.8h5.6v1.4l-2.51,1.8h1.47l1,1V16.5Z"/><path class="cls-2" d="M23.9,17.53h-.8V9.94H23l-2,7.59H19.59l-2-7.59h-.08v7.59H16.7V9.14h1.51l2,7.59h.2l2-7.59H23.9Z"/><path class="cls-2" d="M31.5,11.81v5.72h-.81v-4h-4v4h-.81V11.81l1.79-2.67h2Zm-.81.93v-.69L29.28,9.94H28.11L26.7,12.05v.69Z"/><path class="cls-2" d="M38.85,17.53H34.29V9.14h4.56l1,1V16.5Zm-3.75-.8h3.43l.56-.56V10.5l-.56-.56H35.1Z"/><path class="cls-2" d="M43.5,10.5v2.24h4.39v.8H43.5v2.63l.56.56h4.23v.8H43.73l-1-1V10.17l1-1h4.56v.8H44.06Z"/><path class="cls-2" d="M65.1,12.5l-.64.63.64.64V16.5l-1,1H59.49V9.14h4.56l1,1Zm-4.8.24h3.43l.56-.57V10.5l-.56-.56H60.3Zm4,1.36-.56-.56H60.3v3.19h3.43l.56-.56Z"/><path class="cls-2" d="M73.5,9.14v3.79l-2.4,2v2.61h-.81V14.92l-2.4-2V9.14h.81v3.4l2,1.67,2-1.67V9.14Z"/><path class="cls-2" d="M87.9,9.94v6.79h2.39v.8h-5.6v-.8h2.4V9.94h-2.4v-.8h5.6v.8Z"/><path class="cls-2" d="M98.69,9.14v3.79l-2.39,2v2.61h-.81V14.92l-2.4-2V9.14h.81v3.4l2,1.67,2-1.67V9.14Z"/><path class="cls-2" d="M107.09,11.81v5.72h-.8v-4h-4v4h-.81V11.81l1.79-2.67h2Zm-.8.93v-.69l-1.41-2.11h-1.17l-1.41,2.11v.69Z"/><path class="cls-2" d="M116.3,17.53h-.81V9.94h-.08l-2,7.59H112l-2-7.59h-.08v7.59h-.81V9.14h1.51l2,7.59h.2l2-7.59h1.51Z"/><path class="cls-2" d="M123.9,17.53h-1.48l-3.19-7.59h-.13v7.59h-.81V9.14h1.47l3.2,7.59h.13V9.14h.81Z"/><path class="cls-2" d="M132.29,11.81v5.72h-.8v-4h-4v4h-.81V11.81l1.79-2.67h2Zm-.8.93v-.69l-1.41-2.11h-1.17l-1.41,2.11v.69Z"/><path class="cls-2" d="M140.69,12.5l-.63.63.63.64V16.5l-1,1h-4.56V9.14h4.56l1,1Zm-4.79.24h3.43l.56-.57V10.5l-.56-.56H135.9Zm4,1.36-.56-.56H135.9v3.19h3.43l.56-.56Z"/><path class="cls-2" d="M144.3,10.5v2.24h4.39v.8H144.3v2.63l.56.56h4.23v.8h-4.56l-1-1V10.17l1-1h4.56v.8h-4.23Z"/><path class="cls-2" d="M152.7,10.5v2.24h4.39v.8H152.7v2.63l.56.56h4.23v.8h-4.56l-1-1V10.17l1-1h4.56v.8h-4.23Z"/><path class="cls-2" d="M165.89,17.53h-1.47l-3.19-7.59h-.13v7.59h-.81V9.14h1.47l3.2,7.59h.13V9.14h.8Z"/><path class="cls-2" d="M183.5,9.14V16.5l-1,1h-1.93l-.64-.63-.64.63h-1.93l-1-1V9.14h.81v7l.56.56h1.27l.56-.56v-7h.8v7l.56.56h1.27l.56-.56v-7Z"/><path class="cls-2" d="M188.7,9.94v6.79h2.39v.8h-5.6v-.8h2.4V9.94h-2.4v-.8h5.6v.8Z"/><path class="cls-2" d="M199.49,9.14v.8H197.1v7.59h-.81V9.94h-2.4v-.8Z"/><path class="cls-2" d="M207.89,9.14v8.39h-.8v-4h-4v4h-.81V9.14h.81v3.6h4V9.14Z"/><path class="cls-2" d="M222.49,15.39l-1.8-2.26,1.8-2.24.62.5-1.4,1.74,1.4,1.75Z"/><path class="cls-2" d="M232.05,17.53h-4.56v-.8h4.24l.56-.56V13.71l-.56-.58H229.5v-1l2.79-2V9.94h-4.8v-.8h5.6v1.4l-2.51,1.8h1.47l1,1V16.5Z"/></svg>